<?xml version="1.0" encoding="UTF-8"?>
<svg id="Layer_1" data-name="Layer 1" xmlns="http://www.w3.org/2000/svg" xmlns:xlink="http://www.w3.org/1999/xlink" version="1.1" viewBox="0 0 1528 680">
  <defs>
    <style>
      .cls-1 {
        stroke: #fff;
      }

      .cls-1, .cls-2, .cls-3, .cls-4 {
        stroke-width: 2px;
      }

      .cls-1, .cls-5 {
        fill: #fff;
      }

      .cls-6 {
        clip-path: url(#clippath);
      }

      .cls-7, .cls-2, .cls-8, .cls-9, .cls-10 {
        fill: none;
      }

      .cls-7, .cls-5, .cls-11 {
        stroke-width: 0px;
      }

      .cls-2, .cls-8, .cls-9, .cls-3, .cls-4, .cls-12 {
        stroke: #231f20;
      }

      .cls-8, .cls-10 {
        stroke-width: .2px;
      }

      .cls-13 {
        clip-path: url(#clippath-1);
      }

      .cls-14 {
        clip-path: url(#clippath-4);
      }

      .cls-15 {
        clip-path: url(#clippath-3);
      }

      .cls-16 {
        clip-path: url(#clippath-2);
      }

      .cls-17 {
        clip-path: url(#clippath-7);
      }

      .cls-18 {
        clip-path: url(#clippath-8);
      }

      .cls-19 {
        clip-path: url(#clippath-6);
      }

      .cls-20 {
        clip-path: url(#clippath-5);
      }

      .cls-21 {
        clip-path: url(#clippath-9);
      }

      .cls-9 {
        stroke-width: .5px;
      }

      .cls-22 {
        clip-path: url(#clippath-10);
      }

      .cls-3, .cls-11, .cls-12 {
        fill: #231f20;
      }

      .cls-4 {
        fill: #f3809c;
      }

      .cls-10 {
        stroke: #000;
      }

      .cls-23 {
        display: none;
      }

      .cls-12 {
        stroke-miterlimit: 4;
        stroke-width: 2px;
      }
    </style>
    <clipPath id="clippath">
      <rect class="cls-7" x="330.6" y="27" width="996.1" height="653"/>
    </clipPath>
    <clipPath id="clippath-1">
      <rect class="cls-7" x="330.6" y="27" width="996.1" height="653"/>
    </clipPath>
    <clipPath id="clippath-2">
      <rect class="cls-7" x="330.6" y="27" width="996.1" height="653"/>
    </clipPath>
    <clipPath id="clippath-3">
      <rect class="cls-7" x="330.6" y="27" width="996.1" height="653"/>
    </clipPath>
    <clipPath id="clippath-4">
      <rect class="cls-7" x="330.6" y="27" width="996.1" height="653"/>
    </clipPath>
    <clipPath id="clippath-5">
      <rect class="cls-7" x="330.6" y="27" width="996.1" height="653"/>
    </clipPath>
    <clipPath id="clippath-6">
      <rect class="cls-7" x="166.7" y="291.7" width="5" height="11.7"/>
    </clipPath>
    <clipPath id="clippath-7">
      <rect class="cls-7" x="183.3" y="291.7" width="5" height="11.7"/>
    </clipPath>
    <clipPath id="clippath-8">
      <rect class="cls-7" x="517" y="202.5" width="87" height="13.3"/>
    </clipPath>
    <clipPath id="clippath-9">
      <rect class="cls-7" x="545.8" y="115.7" width="13" height="17.6"/>
    </clipPath>
    <clipPath id="clippath-10">
      <rect class="cls-7" x="561.6" y="115.7" width="13" height="17.6"/>
    </clipPath>
  </defs>
  <g id="bg" class="cls-23">
    <rect class="cls-4" width="1528" height="680"/>
  </g>
  <g id="Layer_16" data-name="Layer 16" class="cls-23">
    <rect class="cls-1" width="1528" height="680"/>
  </g>
  <g id="Floor_line" data-name="Floor line">
    <line class="cls-2" x1="489.8" y1="491.2" x2="430.7" y2="491.2"/>
    <line class="cls-2" x1="686.9" y1="491.2" x2="544.2" y2="491.2"/>
    <line class="cls-2" x1="864.5" y1="491.2" x2="768" y2="491.2"/>
    <line class="cls-2" x1="1528" y1="491.2" x2="1167.5" y2="491.2"/>
    <line class="cls-2" x1="1146.7" y1="491.2" x2="979.3" y2="491.2"/>
    <line class="cls-2" x1="131.9" y1="491.2" y2="491.2"/>
  </g>
  <g id="Layer_2" data-name="Layer 2" class="cls-23">
    <g class="cls-6">
      <path class="cls-8" d="M977.7,679.2c183.3,0,331.8-36.2,331.8-80.9s-148.6-80.9-331.8-80.9-331.8,36.2-331.8,80.9,148.6,80.9,331.8,80.9h0Z"/>
    </g>
    <rect class="cls-8" x="860" y="46.2" width="332.7" height="242.5"/>
    <rect class="cls-5" x="371.1" y="99.8" width="298.8" height="458.8"/>
    <rect class="cls-8" x="371.1" y="99.8" width="298.8" height="458.8"/>
    <rect class="cls-5" x="710.5" y="442.2" width="81" height="98"/>
    <rect class="cls-8" x="710.5" y="442.2" width="81" height="98"/>
    <line class="cls-8" x1="751.7" y1="441.4" x2="751.7" y2="268.8"/>
    <g class="cls-13">
      <path class="cls-8" d="M752.9,125.3c-22.4,0-40.5,18.1-40.5,40.5v141.1c0,22.4,18.1,40.5,40.5,40.5s40.5-18.1,40.5-40.5v-141.1c0-22.4-18.1-40.5-40.5-40.5h0Z"/>
    </g>
    <line class="cls-10" x1="371.3" y1="209" x2="671.7" y2="209"/>
    <line class="cls-10" x1="370.3" y1="303.2" x2="670.7" y2="303.2"/>
    <line class="cls-10" x1="371.3" y1="397.4" x2="671.7" y2="397.4"/>
    <line class="cls-10" x1="522.3" y1="398.2" x2="522.3" y2="559.4"/>
    <g class="cls-16">
      <g>
        <path class="cls-11" d="M498.5,492c3.4,0,6.2-2.8,6.2-6.2s-2.8-6.2-6.2-6.2-6.2,2.8-6.2,6.2,2.8,6.2,6.2,6.2"/>
        <circle class="cls-10" cx="498.5" cy="485.8" r="6.2"/>
        <path class="cls-11" d="M546.2,492c3.4,0,6.2-2.8,6.2-6.2s-2.8-6.2-6.2-6.2-6.2,2.8-6.2,6.2,2.8,6.2,6.2,6.2"/>
        <circle class="cls-10" cx="546.2" cy="485.9" r="6.2"/>
      </g>
    </g>
    <line class="cls-10" x1="1025.5" y1="45.4" x2="1025.5" y2="289.5"/>
    <line class="cls-10" x1="859.2" y1="166.7" x2="1193.5" y2="166.7"/>
    <g class="cls-15">
      <g>
        <path class="cls-8" d="M1255.6,368.4c17.7,0,32.1-22.3,32.1-49.8s-14.4-49.8-32.1-49.8-32.1,22.3-32.1,49.8,14.4,49.8,32.1,49.8h0Z"/>
        <path class="cls-5" d="M1255.6,559.4c22.8,0,41.3-6.6,41.3-14.7s-18.5-14.7-41.3-14.7-41.3,6.6-41.3,14.7,18.5,14.7,41.3,14.7"/>
        <ellipse class="cls-8" cx="1255.6" cy="544.7" rx="41.3" ry="14.7"/>
      </g>
    </g>
    <line class="cls-9" x1="1255.6" y1="369.2" x2="1255.6" y2="546.7"/>
    <line class="cls-8" x1="1254" y1="268" x2="1254" y2="369.2"/>
    <line class="cls-8" x1="1222.7" y1="318.6" x2="1286.9" y2="318.6"/>
    <line class="cls-8" x1="1279" y1="284.8" x2="1231.1" y2="351.9"/>
    <line class="cls-8" x1="1230.4" y1="285.7" x2="1279.7" y2="352.4"/>
    <line class="cls-9" x1="832.7" y1="35.6" x2="1218.3" y2="35.6"/>
    <g class="cls-14">
      <g>
        <path class="cls-11" d="M824.9,42.6c3.9,0,7-3.1,7-7s-3.1-7-7-7-7,3.1-7,7,3.1,7,7,7"/>
        <circle class="cls-8" cx="824.9" cy="35.6" r="7"/>
        <path class="cls-11" d="M1226.1,42.6c3.9,0,7-3.1,7-7s-3.1-7-7-7-7,3.1-7,7,3.1,7,7,7"/>
        <path class="cls-8" d="M1226.1,42.6c3.9,0,7-3.1,7-7s-3.1-7-7-7-7,3.1-7,7,3.1,7,7,7Z"/>
      </g>
    </g>
    <rect class="cls-5" x="840.6" y="27.8" width="28.9" height="383.3"/>
    <rect class="cls-10" x="840.6" y="27.8" width="28.9" height="383.3"/>
    <rect class="cls-5" x="878.1" y="27.8" width="28.9" height="383.3"/>
    <rect class="cls-10" x="878.1" y="27.8" width="28.9" height="383.3"/>
    <rect class="cls-5" x="915.7" y="27.8" width="28.9" height="383.3"/>
    <rect class="cls-10" x="915.7" y="27.8" width="28.9" height="383.3"/>
    <rect class="cls-5" x="1183.8" y="28.6" width="28.9" height="383.3"/>
    <rect class="cls-10" x="1183.8" y="28.6" width="28.9" height="383.3"/>
    <rect class="cls-5" x="1148.4" y="27.8" width="28.9" height="326.5"/>
    <rect class="cls-10" x="1148.4" y="27.8" width="28.9" height="326.5"/>
    <rect class="cls-5" x="1113.1" y="27.8" width="28.9" height="325.2"/>
    <rect class="cls-10" x="1113.1" y="27.8" width="28.9" height="325.2"/>
    <rect class="cls-8" x="377.8" y="144" width="30.5" height="64.2"/>
    <rect class="cls-8" x="409.1" y="154.3" width="30" height="53.9"/>
    <rect class="cls-8" x="552.5" y="181.3" width="108.7" height="27"/>
    <rect class="cls-8" x="397.8" y="340.3" width="84.2" height="55.5"/>
    <rect class="cls-8" x="645.1" y="232" width="25.7" height="70.4"/>
    <rect class="cls-8" x="628.6" y="236.3" width="15.6" height="66.1"/>
    <rect class="cls-8" x="578.6" y="267.2" width="49.2" height="35.2"/>
    <rect class="cls-10" x="1260.4" y="181.3" width="25.7" height="45.2"/>
    <rect class="cls-11" x="1269.7" y="191.5" width="7.1" height="24.7"/>
    <rect class="cls-10" x="1269.7" y="191.5" width="7.1" height="24.7"/>
    <rect class="cls-5" x="874.6" y="353.2" width="114" height="172.7"/>
    <rect class="cls-8" x="874.6" y="353.2" width="114" height="172.7"/>
    <rect class="cls-5" x="1156.8" y="353.2" width="20.5" height="172.7"/>
    <rect class="cls-8" x="1156.8" y="353.2" width="20.5" height="172.7"/>
    <rect class="cls-5" x="866.7" y="349" width="319.5" height="9.6"/>
    <rect class="cls-8" x="866.7" y="349" width="319.5" height="9.6"/>
    <line class="cls-10" x1="873.8" y1="441.4" x2="989.4" y2="441.4"/>
    <rect class="cls-10" x="915.7" y="394.7" width="32.1" height="7"/>
    <rect class="cls-10" x="915.7" y="478" width="32.1" height="7"/>
    <rect class="cls-5" x="975" y="270.2" width="99.5" height="70"/>
    <rect class="cls-10" x="975" y="270.2" width="99.5" height="70"/>
    <rect class="cls-8" x="971.2" y="340.3" width="107" height="8.7"/>
    <rect class="cls-11" x="978.8" y="274.9" width="91.7" height="60.3"/>
    <rect class="cls-10" x="978.8" y="274.9" width="91.7" height="60.3"/>
    <rect class="cls-5" x="895.4" y="339.5" width="28.6" height="8.7"/>
    <rect class="cls-8" x="895.4" y="339.5" width="28.6" height="8.7"/>
    <line class="cls-8" x1="910.5" y1="338.7" x2="910.5" y2="293.4"/>
    <g class="cls-20">
      <g>
        <path class="cls-5" d="M909.7,309.9c11.6,0,21-9.4,21-21s-9.4-21-21-21-21,9.4-21,21,9.4,21,21,21"/>
        <circle class="cls-8" cx="909.7" cy="288.9" r="21"/>
      </g>
    </g>
  </g>
  <g id="rug">
    <path class="cls-2" d="M1317.2,587.9c0,45.1-131.9,81.7-294.5,81.7s-294.5-36.6-294.5-81.7,54.3-54.4,136.3-68.9v28.1h114.8v-40c14.2-.6,28.7-.9,43.4-.9,44.3,0,86.3,2.7,124,7.6v39.3h20.8v-36.3c89.4,14,149.8,40.6,149.8,71.1h-.1Z"/>
  </g>
  <g id="window">
    <path class="cls-2" d="M916.5,317.7c0,8.2-4.8,15.2-11.7,18.5-2,1-4.2,1.6-6.5,1.8-.7,0-1.5.1-2.2.1h0c-.8,0-1.6,0-2.3-.1-10.2-1.1-18.2-9.8-18.2-20.4s5.3-19.9,20.5-20.5h0c3.1,0,6,.7,8.7,2,4,1.9,7.3,5.1,9.3,9,1.5,2.9,2.4,6.1,2.4,9.6h0Z"/>
    <rect class="cls-2" x="858.6" y="64.7" width="8.7" height="243.3"/>
    <path class="cls-2" d="M904.8,64.7v234.4c-2.6-1.2-5.6-2-8.7-2V64.7h8.7Z"/>
    <polygon class="cls-2" points="1102.2 64.7 1102.2 308.1 1064.3 308.1 1064.3 291.4 964.8 291.4 964.8 308.1 933.7 308.1 933.7 64.7 1102.2 64.7"/>
    <rect class="cls-2" x="1131.1" y="64.7" width="6.4" height="243.3"/>
    <rect class="cls-2" x="1166.4" y="64.7" width="7.1" height="243.3"/>
    <line class="cls-2" x1="867.2" y1="54.8" x2="858.6" y2="54.8"/>
    <line class="cls-2" x1="1102.2" y1="54.8" x2="933.7" y2="54.8"/>
    <line class="cls-2" x1="1173.6" y1="54.8" x2="1166.4" y2="54.8"/>
    <line class="cls-2" x1="1209.4" y1="54.8" x2="1202.5" y2="54.8"/>
    <line class="cls-2" x1="1137.5" y1="54.8" x2="1131.1" y2="54.8"/>
    <line class="cls-2" x1="904.8" y1="54.8" x2="896.2" y2="54.8"/>
    <line class="cls-2" x1="829.7" y1="54.8" x2="817.8" y2="54.8"/>
    <circle class="cls-3" cx="813.6" cy="55" r="6.2"/>
    <line class="cls-2" x1="904.8" y1="186.8" x2="896.2" y2="186.8"/>
    <line class="cls-2" x1="1137.5" y1="186.8" x2="1131.1" y2="186.8"/>
    <polyline class="cls-2" points="1166.4 186.8 1168.9 186.8 1173.6 186.8"/>
    <polyline class="cls-2" points="1102.2 186.8 1014.7 186.8 933.7 186.8"/>
    <polyline class="cls-2" points="867.2 186.8 864 186.8 858.6 186.8"/>
    <polygon class="cls-2" points="858.6 47.2 858.6 370.3 856.5 370.3 856.5 379.8 858.6 379.8 858.6 430.5 829.7 430.5 829.7 47.2 858.6 47.2"/>
    <path class="cls-2" d="M896.2,47.2v250h0c-7.9,0-14.7,4.4-18.1,10.9-1.5,2.9-2.4,6.1-2.4,9.6,0,10.5,7.9,19.2,18.2,20.4v23.5h2.5-14.5v8.7h14.5-28.9V47.2h28.9-.2Z"/>
    <path class="cls-2" d="M933.7,47.2v323.1h-28.9,5.5v-8.7h-5.5v-25.3c6.9-3.3,12.3-10.4,11.7-18.5s-.8-6.7-2.4-9.6c-2.1-3.9-5.3-7.1-9.3-9V47.2h28.9Z"/>
    <rect class="cls-2" x="1102.2" y="47.2" width="28.9" height="323.1"/>
    <rect class="cls-2" x="1137.5" y="47.2" width="28.9" height="323.1"/>
    <polygon class="cls-2" points="1202.5 47.2 1202.5 430.5 1173.6 430.5 1173.6 379.8 1176.1 379.8 1176.1 370.3 1173.6 370.3 1173.6 47.2 1202.5 47.2"/>
    <line class="cls-2" x1="1014.7" y1="291.4" x2="1014.7" y2="64.7"/>
    <circle class="cls-3" cx="1215.6" cy="54.8" r="6.2"/>
  </g>
  <g id="desk_plant" data-name="desk plant">
    <path class="cls-2" d="M728.2,116.2h0c24,0,43.4,19.4,43.4,43.4v136.7c0,24-19.4,43.4-43.4,43.4h0c-24,0-43.4-19.4-43.4-43.4v-136.7c0-24,19.4-43.4,43.4-43.4Z"/>
    <path class="cls-2" d="M864.5,379.8v82.2h114.8v-82.2h-114.8Z"/>
    <path class="cls-2" d="M864.5,462v85.1h114.8v-85.1h-114.8ZM938.4,506.2h-32.8v-7h32.8v7Z"/>
    <rect class="cls-2" x="905.6" y="499.3" width="32.8" height="7"/>
    <rect class="cls-2" x="1146.7" y="379.8" width="20.8" height="173.3"/>
    <rect class="cls-2" x="856.5" y="370.3" width="319.5" height="9.5"/>
    <rect class="cls-2" x="905.6" y="416" width="32.1" height="7"/>
    <rect class="cls-2" x="905.6" y="499.3" width="32.8" height="7"/>
    <line class="cls-2" x1="728.2" y1="260.5" x2="728.2" y2="433.9"/>
    <rect class="cls-2" x="686.9" y="433.9" width="81.1" height="98.3"/>
  </g>
  <g id="laptop">
    <rect class="cls-2" x="964.8" y="291.4" width="99.5" height="69.3"/>
    <rect class="cls-2" x="961.1" y="360.8" width="107" height="9.5"/>
    <rect class="cls-3" x="969.8" y="297.2" width="89.6" height="59.4"/>
  </g>
  <g id="lamp">
    <rect class="cls-2" x="881.7" y="361.6" width="28.6" height="8.6"/>
    <path class="cls-2" d="M898.4,338v23.6h-4.7v-23.6c.8.1,1.5.1,2.3.1h0c.7,0,1.5,0,2.2-.1h.2Z"/>
  </g>
  <g id="fan">
    <line class="cls-2" x1="1380.5" y1="373.5" x2="1380.5" y2="551.8"/>
    <ellipse class="cls-2" cx="1380.5" cy="549" rx="40.5" ry="15.4"/>
    <ellipse class="cls-2" cx="1380" cy="324" rx="32.4" ry="49.5"/>
    <line class="cls-2" x1="1380" y1="274.5" x2="1380" y2="372.9"/>
    <line class="cls-2" x1="1347.6" y1="324" x2="1412.3" y2="324"/>
    <line class="cls-2" x1="1404.1" y1="289.9" x2="1355.4" y2="357.5"/>
    <line class="cls-2" x1="1355.4" y1="290.9" x2="1404.6" y2="356.1"/>
  </g>
  <g id="trashcan">
    <polyline class="cls-2" points="544.2 491.2 541.5 519.2 492.5 519.2 489.8 491.2"/>
    <line class="cls-2" x1="548.2" y1="450.3" x2="544.2" y2="491.2"/>
    <line class="cls-2" x1="489.8" y1="491.2" x2="485.8" y2="450.3"/>
    <ellipse class="cls-2" cx="517" cy="450.3" rx="31.2" ry="3.5"/>
  </g>
  <g id="shelf">
    <rect class="cls-2" x="131.9" y="100.5" width="298.8" height="458.8"/>
    <line class="cls-2" x1="132.1" y1="208.9" x2="430.7" y2="208.9"/>
    <line class="cls-2" x1="132.1" y1="303.9" x2="430.7" y2="303.9"/>
    <line class="cls-2" x1="132.1" y1="398.9" x2="430.7" y2="398.9"/>
    <line class="cls-2" x1="282.3" y1="559.3" x2="282.3" y2="399.7"/>
    <circle class="cls-3" cx="309.7" cy="486.8" r="6"/>
    <circle class="cls-12" cx="255.3" cy="486.6" r="6" transform="translate(-287.1 575.1) rotate(-71.6)"/>
    <rect class="cls-2" x="132.1" y="117.4" width="16.1" height="91.5"/>
    <rect class="cls-2" x="148.2" y="125.2" width="15.7" height="83.7"/>
    <rect class="cls-2" x="163.9" y="123.6" width="8.7" height="85.4"/>
    <rect class="cls-2" x="172.6" y="131.7" width="12.5" height="77.2"/>
    <rect class="cls-2" x="185.1" y="141.4" width="18.6" height="67.5"/>
    <rect class="cls-2" x="203.8" y="137.3" width="17.4" height="71.6"/>
    <rect class="cls-2" x="312.7" y="192.7" width="100.3" height="16.2"/>
    <rect class="cls-2" x="317.5" y="183.8" width="90.6" height="8.9"/>
    <rect class="cls-2" x="326.5" y="167.1" width="58.6" height="16.7"/>
    <rect class="cls-2" x="414.4" y="220.2" width="16.3" height="83.7"/>
    <rect class="cls-2" x="398.5" y="220.2" width="15.9" height="83.7"/>
    <rect class="cls-2" x="379.9" y="236.4" width="18.6" height="67.5"/>
    <rect class="cls-2" x="361.2" y="243" width="18.6" height="60.8"/>
    <rect class="cls-2" x="343.9" y="232.3" width="17.4" height="71.6"/>
    <rect class="cls-2" x="328.8" y="253.2" width="15.1" height="50.7"/>
    <rect class="cls-2" x="313.7" y="253.2" width="15.1" height="50.7"/>
    <line class="cls-2" x1="290.9" y1="270.1" x2="290.9" y2="249.2"/>
    <circle class="cls-2" cx="290.9" cy="242.8" r="6.4"/>
    <line class="cls-2" x1="303.6" y1="270.6" x2="303.6" y2="263.3"/>
    <circle class="cls-2" cx="303.6" cy="257.6" r="6.4"/>
    <rect class="cls-2" x="284.5" y="270.1" width="29.1" height="33.7"/>
    <g>
      <g id="_Mirror_Repeat_" data-name=" Mirror Repeat ">
        <g class="cls-19">
          <line class="cls-2" x1="170.7" y1="292" x2="167.7" y2="303.2"/>
        </g>
      </g>
      <g id="_Mirror_Repeat_-2" data-name=" Mirror Repeat -2">
        <g class="cls-17">
          <line class="cls-2" x1="184.2" y1="292" x2="187.3" y2="303.2"/>
        </g>
      </g>
    </g>
    <rect class="cls-2" x="161.5" y="247.6" width="31.9" height="45"/>
    <rect class="cls-2" x="212.4" y="281.6" width="21.9" height="22.3"/>
    <line class="cls-2" x1="223.4" y1="285.5" x2="223.4" y2="278.5"/>
    <rect class="cls-2" x="184.2" y="382.7" width="100.3" height="16.2"/>
    <rect class="cls-2" x="189" y="373.8" width="90.6" height="8.9"/>
    <rect class="cls-2" x="189" y="364.5" width="90.6" height="9.2"/>
    <rect class="cls-2" x="414.6" y="331.4" width="16.1" height="67.5"/>
    <rect class="cls-2" x="397.9" y="325.7" width="16.8" height="73.2"/>
    <rect class="cls-2" x="389.2" y="333.8" width="8.7" height="65"/>
    <rect class="cls-2" x="376.7" y="321.7" width="12.5" height="77.2"/>
    <rect class="cls-2" x="358.1" y="331.4" width="18.6" height="67.5"/>
    <rect class="cls-2" x="345.8" y="327.3" width="12.3" height="71.6"/>
    <rect class="cls-2" x="329.7" y="331.4" width="16.1" height="67.5"/>
    <rect class="cls-2" x="322.9" y="324.9" width="6.8" height="74"/>
    <rect class="cls-2" x="313.6" y="333" width="9.3" height="65.8"/>
    <rect class="cls-2" x="301.1" y="321.7" width="12.5" height="77.2"/>
    <rect class="cls-2" x="290.1" y="342.4" width="10.9" height="56.5"/>
    <rect class="cls-2" x="221.1" y="161.3" width="14.6" height="47.7"/>
    <rect class="cls-2" x="235.7" y="152.1" width="14.3" height="56.9"/>
    <rect class="cls-2" x="250.1" y="158.4" width="10.6" height="50.5"/>
    <rect class="cls-2" x="260.7" y="163.2" width="9.7" height="45.7"/>
    <rect class="cls-2" x="132" y="325.7" width="16.3" height="73.2"/>
    <rect class="cls-2" x="148.3" y="333" width="9.1" height="65.8"/>
    <rect class="cls-2" x="157.4" y="337.2" width="18.6" height="61.7"/>
  </g>
  <g id="calender">
    <rect class="cls-2" x="511.4" y="132.7" width="97" height="73.9"/>
    <rect class="cls-2" x="511.4" y="211.6" width="97" height="73.9"/>
    <rect class="cls-2" x="521.6" y="142.1" width="76.9" height="55.1"/>
    <rect class="cls-2" x="517.9" y="219.5" width="84.1" height="57.8"/>
    <line class="cls-2" x1="560.1" y1="219.5" x2="560.1" y2="277.3"/>
    <line class="cls-2" x1="545.6" y1="219.5" x2="545.6" y2="277.3"/>
    <line class="cls-2" x1="574.6" y1="219.5" x2="574.6" y2="277.3"/>
    <line class="cls-2" x1="589.1" y1="219.6" x2="589.1" y2="277.4"/>
    <line class="cls-2" x1="531.1" y1="219.5" x2="531.1" y2="277.3"/>
    <line class="cls-2" x1="517.2" y1="249.2" x2="602" y2="249.2"/>
    <line class="cls-2" x1="517.6" y1="234.8" x2="601.6" y2="234.8"/>
    <line class="cls-2" x1="518" y1="262.6" x2="602.1" y2="262.6"/>
    <g class="cls-18">
      <g>
        <line class="cls-2" x1="518" y1="202.5" x2="518" y2="215"/>
        <line class="cls-2" x1="530" y1="202.5" x2="530" y2="215"/>
        <line class="cls-2" x1="542" y1="202.5" x2="542" y2="215"/>
        <line class="cls-2" x1="554" y1="202.5" x2="554" y2="215"/>
        <line class="cls-2" x1="566" y1="202.5" x2="566" y2="215"/>
        <line class="cls-2" x1="578" y1="202.5" x2="578" y2="215"/>
        <line class="cls-2" x1="590" y1="202.5" x2="590" y2="215"/>
        <line class="cls-2" x1="602" y1="202.5" x2="602" y2="215"/>
      </g>
    </g>
    <circle class="cls-2" cx="560.1" cy="113.6" r="2.6"/>
    <g>
      <g id="_Mirror_Repeat_-3" data-name=" Mirror Repeat -3">
        <g class="cls-21">
          <line class="cls-2" x1="557.9" y1="116.2" x2="546.6" y2="132.7"/>
        </g>
      </g>
      <g id="_Mirror_Repeat_-4" data-name=" Mirror Repeat -4">
        <g class="cls-22">
          <line class="cls-2" x1="562.4" y1="116.2" x2="573.7" y2="132.7"/>
        </g>
      </g>
    </g>
  </g>
  <g id="Layer_14" data-name="Layer 14">
    <rect class="cls-2" x="792.3" y="443.6" width="18.3" height="32.6"/>
    <circle class="cls-2" cx="801.4" cy="453.3" r="4.5"/>
    <circle class="cls-2" cx="801.4" cy="466.4" r="4.5"/>
  </g>
  <g id="Layer_15" data-name="Layer 15">
    <path class="cls-2" d="M1250.5,86.7v152.1h236.7V86.7h-236.7ZM1289,119h-4.4v-7.8h4.4v7.8ZM1333.9,110.4h-4.4v-7.8h4.4v7.8ZM1318.1,150.2h4.4v7.8h-4.4v-7.8ZM1459.5,108.7h-4.4v-7.8h4.4v7.8ZM1417.2,220.9l-3.7,2.5-3.1-4.6-4.5-6.6-3.7-5.5,3.7-2.5h0l9.8,14.6,1.4,2.1h0ZM1456.1,152.5l-1.1-1.6,3.7-2.5,2.8,4.1,4.8,7.2,3.7,5.5M1466.3,167.6h0"/>
    <path class="cls-2" d="M1258.3,93.2v137.9h222.3V93.2h-222.3ZM1455,100.8h4.4v7.8h-4.4v-7.8ZM1329.5,102.5h4.4v7.8h-4.4v-7.8ZM1322.5,158h-4.4v-7.8h4.4v7.8ZM1284.6,111.2h4.4v7.8h-4.4v-7.8ZM1413.6,223.4l-3.1-4.6-4.5-6.6-3.7-5.5,3.7-2.5h0l9.8,14.6,1.4,2.1-3.7,2.5h0Z"/>
    <polygon class="cls-2" points="1335 154.1 1335 183.6 1305.6 183.6 1305.6 154.1 1318.1 154.1 1318.1 158 1322.5 158 1322.5 154.1 1335 154.1"/>
    <polygon class="cls-2" points="1346.3 106.4 1346.3 135.6 1317.2 135.6 1317.2 106.4 1329.5 106.4 1329.5 110.4 1333.9 110.4 1333.9 106.4 1346.3 106.4"/>
    <polygon class="cls-2" points="1466.3 152.5 1466.3 159.7 1461.5 152.5 1466.3 152.5"/>
    <polygon class="cls-2" points="1410.5 218.8 1406 218.8 1406 212.2 1410.5 218.8"/>
    <polygon class="cls-2" points="1466.3 167.6 1466.3 218.8 1415.8 218.8 1406 204.2 1406 152.5 1456.1 152.5 1466.3 167.6"/>
    <polygon class="cls-2" points="1469.6 104.7 1469.6 133.9 1440.5 133.9 1440.5 104.7 1455 104.7 1455 108.7 1459.5 108.7 1459.5 104.7 1469.6 104.7"/>
    <circle class="cls-2" cx="1279.7" cy="182.5" r="9.9"/>
    <circle class="cls-2" cx="1292" cy="209.9" r="8.9"/>
    <polygon class="cls-2" points="1301.3 114.6 1301.3 143.7 1272.2 143.7 1272.2 114.6 1284.6 114.6 1284.6 119 1289 119 1289 114.6 1301.3 114.6"/>
    <rect class="cls-2" x="1284.6" y="111.2" width="4.4" height="7.8"/>
    <rect class="cls-2" x="1455" y="100.8" width="4.4" height="7.8"/>
    <polygon class="cls-2" points="1417.2 220.9 1413.6 223.4 1410.5 218.8 1406 212.2 1402.3 206.6 1406 204.2 1406 204.2 1415.8 218.8 1417.2 220.9"/>
    <polyline class="cls-2" points="1456.1 152.5 1455 150.9 1458.7 148.4 1461.5 152.5 1466.3 159.7 1470 165.2 1466.3 167.6"/>
    <rect class="cls-2" x="1318.1" y="150.2" width="4.4" height="7.8"/>
    <rect class="cls-2" x="1329.5" y="102.5" width="4.4" height="7.8"/>
    <rect class="cls-2" x="1388.7" y="105.4" width="34.4" height="36.4"/>
    <rect class="cls-3" x="1393.6" y="110.3" width="24.5" height="21.9"/>
    <rect class="cls-2" x="1359" y="154.4" width="34.4" height="36.4"/>
    <rect class="cls-3" x="1364" y="159.4" width="24.5" height="21.9"/>
  </g>
</svg>