<?xml version="1.0" encoding="UTF-8"?>
<svg id="Layer_1" data-name="Layer 1" xmlns="http://www.w3.org/2000/svg" version="1.1" viewBox="0 0 1531.8 682.8">
  <defs>
    <style>
      .cls-1 {
        stroke-miterlimit: 10;
        stroke-width: 2px;
      }

      .cls-1, .cls-2, .cls-3, .cls-4, .cls-5 {
        fill: none;
        stroke: #444;
      }

      .cls-2, .cls-4 {
        stroke-miterlimit: 10;
      }

      .cls-2, .cls-5 {
        stroke-width: 2px;
      }

      .cls-3 {
        stroke-miterlimit: 10;
        stroke-width: 2px;
      }
    </style>
  </defs>
  <g id="c">
    <path class="cls-5" d="M454,494.3"/>
    <polyline class="cls-5" points="735 494.3 735.5 494.3 746.3 494.3 747.2 494.3"/>
    <polyline class="cls-5" points="757.6 494.3 998.2 494.3 998.7 494.3"/>
    <polyline class="cls-5" points="1530.8 494.3 1370.7 494.3 1360.6 494.3 1316.9 494.3 1169 494.3"/>
    <polyline class="cls-5" points="501.4 494.3 509.6 494.3 557.6 494.3"/>
    <line class="cls-5" x1="587.1" y1="494.3" x2="586.4" y2="494.3"/>
    <polyline class="cls-5" points="2.8 494.3 212.4 494.3 244.5 494.3"/>
  </g>
  <g id="e">
    <polygon class="cls-2" points="1236.5 160.7 1236.5 494.3 1169 494.3 1136.4 470.1 1111.1 451.4 1079.3 463.5 1079.3 160.7 1236.5 160.7"/>
    <line class="cls-2" x1="1079.6" y1="228" x2="1236.5" y2="228"/>
    <line class="cls-2" x1="1079.9" y1="297.1" x2="1235.8" y2="297.1"/>
    <line class="cls-2" x1="1080.3" y1="364.2" x2="1236.1" y2="364.2"/>
    <line class="cls-2" x1="1079.5" y1="432.9" x2="1235.3" y2="432.9"/>
    <rect class="cls-2" x="1079.3" y="173.2" width="14.6" height="54.7"/>
    <rect class="cls-2" x="1094.1" y="179.5" width="9.4" height="48.3"/>
    <rect class="cls-1" x="1110.9" y="172.1" width="14.6" height="54.7" transform="translate(-11.5 317.9) rotate(-16.1)"/>
    <rect class="cls-2" x="1168.7" y="242.2" width="14.9" height="54.7"/>
    <rect class="cls-2" x="1183.6" y="242.2" width="7.3" height="54.7"/>
    <rect class="cls-2" x="1163" y="265.9" width="5.7" height="31"/>
    <rect class="cls-2" x="1191" y="256.7" width="12.7" height="39.9"/>
    <rect class="cls-2" x="1147.7" y="323.8" width="8.5" height="39.9"/>
    <rect class="cls-2" x="1156.5" y="312.4" width="16.2" height="51.4"/>
    <rect class="cls-2" x="1172.7" y="323.9" width="15.4" height="39.9"/>
    <rect class="cls-2" x="1147.1" y="256.5" width="15.9" height="40.6"/>
    <rect class="cls-1" x="1193.6" y="318.2" width="7.3" height="44.9" transform="translate(-47.5 345.4) rotate(-16.1)"/>
    <rect class="cls-2" x="1120.6" y="378" width="14.6" height="54.7"/>
    <rect class="cls-2" x="1135.3" y="383.7" width="7.3" height="48.6"/>
    <rect class="cls-2" x="1114.9" y="402.3" width="5.7" height="30.5"/>
    <rect class="cls-2" x="1142.6" y="392.8" width="12.7" height="39.9"/>
    <rect class="cls-2" x="1098.7" y="392.9" width="16.2" height="39.9"/>
    <ellipse class="cls-2" cx="1218.4" cy="208.4" rx="17.2" ry="18.3"/>
    <ellipse class="cls-2" cx="1199.9" cy="413.2" rx="22.9" ry="18.8"/>
  </g>
  <g id="f">
    <line class="cls-2" y1="277.3" x2="400.8" y2="2"/>
    <line class="cls-2" x1="1528.4" y1="276.3" x2="1128.2" y2="2.4"/>
    <line class="cls-2" x1="1529.2" y1="200.2" x2="1240.7" y2="2.8"/>
    <line class="cls-2" x1="-.5" y1="202" x2="300"/>
    <rect class="cls-2" x="667" y="78.7" width="8.4" height="254.3"/>
    <rect class="cls-2" x="698.9" y="78.7" width="9" height="254.3"/>
    <rect class="cls-2" x="731.4" y="78.7" width="62.6" height="254.3"/>
    <rect class="cls-2" x="817.4" y="78.7" width="8.4" height="254.3"/>
    <rect class="cls-2" x="849.3" y="78.7" width="9" height="254.3"/>
    <line class="cls-2" x1="825.9" y1="209.6" x2="817.4" y2="209.6"/>
    <line class="cls-2" x1="858.3" y1="209.6" x2="849.3" y2="209.6"/>
    <line class="cls-2" x1="707.9" y1="209.6" x2="698.9" y2="209.6"/>
    <polyline class="cls-2" points="675.4 209.6 672.8 209.6 667 209.6"/>
    <polyline class="cls-2" points="731.4 209.6 761.9 209.6 794 209.6"/>
    <line class="cls-2" x1="761.9" y1="78.6" x2="761.9" y2="331.7"/>
    <polyline class="cls-2" points="986.4 499.2 1058.8 471.4 1079.3 463.5 1111.1 451.4 1136.4 470.1 1169.8 494.9 1044.4 547.1"/>
    <polygon class="cls-2" points="987 500.4 985.2 580.3 1043.5 631.5 1169.8 567.4 1044.4 631 1044.4 547.1 987 500.4"/>
    <polygon class="cls-2" points="1169.8 494.9 1169.8 567.4 1044.4 631 1044.4 547.1 1169.8 494.9"/>
    <line class="cls-2" x1="1136.5" y1="470.1" x2="1136.4" y2="470.1"/>
    <line class="cls-2" x1="1136.4" y1="470.1" x2="1015.7" y2="523.3"/>
    <g>
      <g>
        <polyline class="cls-2" points="419 516.8 352 494.3 245 458.2 274.3 440.4 291 430.4 326.2 409.5 501.3 463.8"/>
        <path class="cls-2" d="M486.4,564.3l-7.9-12.4-.8-.5c.7.4,9.3,5.6,15.5,9.1l8-6.6-.7-89.2-46.6,29.6h0l-35,22.5v94.1l23.1-16c-.1-1.5.3-3.6,1.1-6,1.9-5.7,12.8-24.5,18.2-33.6l-7.2,10.7s-21.4,15.6-19.8,7.6c1.5-7.6,25.6-19,28-20.1M464.1,549.6h0c-.9-.3-3.5-.8-11-2-13.7-2.1-8.7-13.1-8.7-13.1,7-25.3,27.9-23,27.9-23,0,0,17.8-1.8,23.1,13.9,5.3,15.7,8.6,18.5-15.1,24.3l-2.4,1.1"/>
        <path class="cls-2" d="M486.4,564.3c6.8,10.8,15.2,24.9,15.6,29,.7,5.1-4.6,4.5-7.3,3.9h0c-.8-3.7-4.3-6.5-8.5-6.5s-7,2.2-8.2,5.3h-1.8l-6.4-.3-2.6.3c-1.1-3.2-4.4-5.5-8.4-5.5s-8.5,3.2-8.7,7.3c-5.4,1.4-7.7.2-8-2.9-.1-1.5.3-3.6,1.1-6,1.9-5.7,12.8-24.5,18.2-33.6h0"/>
        <path class="cls-2" d="M477.9,552"/>
        <path class="cls-2" d="M465.2,550.5l-3.8,4.7c.4-.6.7-1.2,1-1.7.2,0,2.8-3,2.8-3Z"/>
        <path class="cls-2" d="M243.7,458.5l.8,81,173.9,72.4M419,516.8l-66.9-22.5h0M294,526.8l-1.1-24.9,64.9,24.6,1.4,24-65.2-23.7h0Z"/>
        <polygon class="cls-2" points="359.2 550.5 294 526.8 292.9 501.9 357.8 526.5 359.2 550.5"/>
      </g>
      <line class="cls-2" x1="290.8" y1="430.4" x2="460.2" y2="490.4"/>
    </g>
    <line class="cls-2" x1="509.6" y1="495" x2="509.6" y2="2.3"/>
    <line class="cls-2" x1="449" y1="447.3" x2="449" y2="-2.2"/>
    <line class="cls-2" x1="1058.8" y1="471.4" x2="1058.8" y2="3.3"/>
    <line class="cls-2" x1="998.2" y1="494.8" x2="998.2" y2="3.3"/>
    <line class="cls-2" x1="1316.9" y1="494.7" x2="1316.9" y2="130.8"/>
    <line class="cls-2" x1="1255" y1="493.5" x2="1255" y2="88.8"/>
    <line class="cls-2" x1="212.4" y1="494.3" x2="212.4" y2="130.5"/>
    <line class="cls-2" x1="274.3" y1="441" x2="274.3" y2="88.5"/>
    <path class="cls-2" d="M390.1,41.5s12.6-3.2,12,11.4"/>
    <path class="cls-2" d="M402.1,52.6s10.6-7.5,15.3,6.3"/>
    <path class="cls-2" d="M371,58.5s17.9-4.9,17,15.4"/>
    <path class="cls-2" d="M404.6,29.2s9.3-2.6,9.3,7.5"/>
    <path class="cls-2" d="M415,20.9s6-1.6,6,4.3"/>
    <g>
      <line class="cls-2" x1="438.8" x2="388.9" y2="131.7"/>
      <line class="cls-2" x1="438.8" x2="359.2" y2="115.5"/>
      <line class="cls-2" x1="438.8" x2="331.2" y2="93.1"/>
      <line class="cls-2" x1="438.8" x2="299.1" y2="71.8"/>
      <line class="cls-2" x1="438.8" x2="426.9" y2="139.8"/>
      <path class="cls-2" d="M417,58.7c-1.6,1.8,7.5-11.6,16.3,2.5"/>
      <path class="cls-2" d="M433.5,63.3s2.7-14.2,16.1-7.5"/>
      <path class="cls-2" d="M377.7,31.2s12.5-3.7,12.5,10.8"/>
      <path class="cls-2" d="M375.5,19.5s8-.7,5.1,10.3"/>
      <path class="cls-2" d="M388.3,73.2s16.3-6.2,20.1,8.9"/>
      <path class="cls-2" d="M407.2,83.3s13-13.1,23.8,5.1"/>
      <path class="cls-2" d="M431.1,88.4s4.7-15,17.9-2.3"/>
      <path class="cls-2" d="M355.2,42.9c.1,0,16.4-3.9,15.8,15.6"/>
      <path class="cls-2" d="M355.6,33.3s6.1-.6,3.9,8.3"/>
      <path class="cls-2" d="M349.1,77.8s22.3-6,21.2,21.6"/>
      <path class="cls-2" d="M370.3,99.5s16.1-17.2,25.2,15.1"/>
      <path class="cls-2" d="M395.5,114.6s17.2-21.3,32.8,9.7"/>
      <path class="cls-2" d="M428.3,122.1s5.6-19.7,20.7-2.7"/>
      <path class="cls-2" d="M331.9,55s18.1-6.7,18.2,22.2"/>
      <path class="cls-2" d="M331.2,50.3s2-1.6.7,4.7"/>
      <path class="cls-2" d="M413.3,36.6s9.9-1.7,9.4,6.2"/>
      <path class="cls-2" d="M423.2,42.3c-.5.9,6.7-7.7,11.7,4.5"/>
      <path class="cls-2" d="M434.9,46.8s-.3-9.2,14.3-3.4"/>
      <path class="cls-2" d="M390.7,9.5s10.6-1,7.4,11.4"/>
      <path class="cls-2" d="M398.1,20.9s5.5-4.2,7.5,7.7"/>
      <path class="cls-2" d="M420.4,25.2s7.8-1.4,7.4,5.2"/>
      <path class="cls-2" d="M427.8,30.4c-2.1,1.5,5-5.6,8.1,2.3"/>
      <path class="cls-2" d="M435.8,32.6s6.2-8.4,13.4,1.2"/>
      <path class="cls-2" d="M400.1,2.2s14.1.6,10.9,11.7"/>
      <path class="cls-2" d="M411.5,14.7s1.8-2.7,3.3,6"/>
    </g>
    <g>
      <line class="cls-2" x1="418.5" y1="87.8" x2="418.7" y2="80.8"/>
      <g>
        <ellipse class="cls-2" cx="419.1" cy="94.9" rx="6.8" ry="6.2"/>
        <ellipse class="cls-2" cx="411.8" cy="88.3" rx="3.4" ry="3.1"/>
        <line class="cls-2" x1="423.4" y1="90.3" x2="426.9" y2="83.5"/>
        <line class="cls-2" x1="425" y1="92.3" x2="435.6" y2="91.1"/>
        <line class="cls-2" x1="425.9" y1="96.3" x2="435.8" y2="97.6"/>
        <line class="cls-2" x1="412.9" y1="96.9" x2="403.9" y2="95.9"/>
        <line class="cls-2" x1="415.1" y1="99" x2="405.8" y2="104.5"/>
        <line class="cls-2" x1="416.2" y1="100.8" x2="413.6" y2="110.7"/>
        <line class="cls-2" x1="419.2" y1="100.5" x2="420.4" y2="111.2"/>
      </g>
    </g>
    <g>
      <g>
        <polygon class="cls-2" points="1386.8 547.7 1289.6 515.9 1244.1 544.8 1341.3 579.4 1386.8 547.7"/>
        <polygon class="cls-2" points="1387.2 548.2 1387.2 601.4 1341.3 635.1 1341.3 635.1 1244.1 592.8 1341.3 635.1 1341.3 579.4 1387.2 548.2"/>
        <polygon class="cls-2" points="1244.1 544.8 1244.1 592.8 1341.3 635.1 1341.3 579.4 1244.1 544.8"/>
      </g>
      <line class="cls-2" x1="1269.8" y1="529.3" x2="1363.5" y2="564.6"/>
    </g>
  </g>
  <g>
    <path class="cls-2" d="M492.4,560c7.1,4.1,14.8,9.5,15.7,13.7,1.7,8.1-19.3-5.6-19.3-5.6l-2.9-4.6"/>
    <path class="cls-2" d="M464.2,549.6h0c-3.6-2.2-7.5-6.6-9.6-15.2h1.3c1.5,0,3.1,0,3.6-.2,4.5-.8,10.3-3.4,12.5-11.1.1,0,4.1,11.2,17.3,10.9h0s-2,11.1-9.5,15.7c-6.9,3.9-15.6,0-15.6,0h0Z"/>
    <path class="cls-2" d="M467.6,598.1c0,4.3-3.9,7.7-8.7,7.7s-8.7-3.5-8.7-7.7v-.4c.2-4.1,4-7.3,8.7-7.3s7.3,2.3,8.4,5.5c.2.7.3,1.4.3,2.2h0Z"/>
    <path class="cls-2" d="M495,598.7c0,4.5-3.9,8.1-8.7,8.1s-8.7-3.6-8.7-8.1.2-1.9.5-2.8c1.2-3.1,4.4-5.3,8.2-5.3s7.7,2.8,8.5,6.5c.1.5.2,1,.2,1.6Z"/>
    <ellipse class="cls-4" cx="464.5" cy="537.9" rx="2.2" ry="2.4"/>
    <ellipse class="cls-4" cx="480.7" cy="538.3" rx="2.2" ry="2.4"/>
  </g>
  <g id="j">
    <g>
      <path class="cls-2" d="M130.3,341.5s-6.8-1.6-7.4,2.1.2,41.9.2,41.9"/>
      <path class="cls-2" d="M183.2,340.9s6.8-1.7,7.5,2,.2,41.9.2,41.9"/>
      <polyline class="cls-2" points="137.1 389.2 137.2 410.5 149.8 410.4 149.7 389.6 137.1 389.6 149.7 389.6 137.1 389.6 149.7 389.6"/>
      <polyline class="cls-2" points="165.2 389 165.3 410.3 178 410.2 177.9 389.4 165.2 389.5 177.9 389.4 165.2 389.5 177.9 389.4"/>
      <rect class="cls-3" x="137.3" y="306.3" width="38.5" height="26.2" transform="translate(-1.1 .5) rotate(-.2)"/>
      <rect class="cls-3" x="130.8" y="332.7" width="51.7" height="56.9" transform="translate(-1.3 .5) rotate(-.2)"/>
      <rect class="cls-3" x="134.6" y="410.6" width="17.8" height="3.6" transform="translate(-1.4 .5) rotate(-.2)"/>
      <rect class="cls-3" x="162.8" y="410.5" width="17.8" height="3.6" transform="translate(-1.4 .6) rotate(-.2)"/>
      <line class="cls-2" x1="143.2" y1="324.8" x2="169.8" y2="324.7"/>
      <circle class="cls-4" cx="144.7" cy="315.4" r="2.9"/>
      <circle class="cls-4" cx="167.8" cy="315.4" r="2.9"/>
      <ellipse class="cls-3" cx="156.1" cy="352.2" rx="10" ry="5.6" transform="translate(-1.2 .5) rotate(-.2)"/>
    </g>
    <line class="cls-2" x1="572.4" y1="85" x2="572.4" y2="2.2"/>
    <circle class="cls-2" cx="572.7" cy="126.1" r="42.3"/>
    <polyline class="cls-2" points="616.4 587.9 586.7 566.2 558.3 544.4 557.6 494.3 557.3 473.7 586.4 494.3 614.8 514.4 615.2 547.7"/>
    <polygon class="cls-2" points="557.3 473.7 533 445.5 654.1 401 677.7 429.3 557.3 473.7"/>
    <g>
      <line class="cls-2" x1="735.2" y1="464.6" x2="747.9" y2="483.1"/>
      <polygon class="cls-2" points="761.6 502.9 753 506.6 747.2 494.3 745.4 490.4 747.5 482.6 747.6 482.7 754.1 486.8 757.6 494.3 761.6 502.9"/>
    </g>
    <rect class="cls-2" x="19.1" y="414.1" width="177" height="38"/>
    <rect class="cls-2" x="34" y="451.9" width="15.1" height="42.2"/>
    <rect class="cls-2" x="165.9" y="452.3" width="15.1" height="42"/>
    <rect class="cls-2" x="1350.6" y="441.8" width="118.3" height="25.4"/>
    <rect class="cls-2" x="1360.6" y="467.2" width="10.1" height="27.1"/>
    <rect class="cls-2" x="1448.8" y="467.4" width="10.1" height="26.6"/>
    <rect class="cls-2" x="1389.6" y="427.1" width="46.2" height="14.7"/>
    <rect class="cls-2" x="1374.9" y="395.6" width="14.7" height="46.2"/>
    <rect class="cls-2" x="1394.1" y="412.4" width="46.2" height="14.7"/>
    <line class="cls-2" x1="825.9" y1="78.7" x2="817.4" y2="78.7"/>
    <line class="cls-2" x1="893.6" y1="78.7" x2="881.8" y2="78.7"/>
    <path class="cls-2" d="M909.8,78.7"/>
    <line class="cls-2" x1="858.3" y1="78.7" x2="849.3" y2="78.7"/>
    <line class="cls-2" x1="707.9" y1="78.7" x2="698.9" y2="78.7"/>
    <line class="cls-2" x1="643.5" y1="78.7" x2="636.2" y2="78.7"/>
    <line class="cls-2" x1="675.4" y1="78.7" x2="667" y2="78.7"/>
    <polyline class="cls-2" points="731.4 78.7 761.9 78.7 794 78.7"/>
    <path class="cls-4" d="M909.8,79.3c0,4.4-3.6,8-8.1,8s-8.1-3.6-8.1-8,0-.4,0-.6c.3-4.1,3.8-7.4,8.1-7.4s7.8,3.3,8.1,7.4c0,.2,0,.4,0,.6Z"/>
    <path class="cls-4" d="M636.2,78.7h0c0,4.5-3.6,8.1-8.1,8.1s-8.1-3.6-8.1-8h0c0-4.5,3.7-8,8.1-8s8,3.5,8.1,7.9Z"/>
    <rect class="cls-2" x="643.5" y="69.3" width="23.5" height="296.9"/>
    <rect class="cls-2" x="675.4" y="69.1" width="23.5" height="296.9"/>
    <rect class="cls-2" x="707.9" y="69.1" width="23.5" height="296.9"/>
    <rect class="cls-2" x="794" y="68.8" width="23.5" height="296.9"/>
    <rect class="cls-2" x="825.9" y="68.6" width="23.5" height="296.9"/>
    <rect class="cls-2" x="858.3" y="68.8" width="23.5" height="296.9"/>
    <path class="cls-2" d="M614.7,514.4l51.8-21,69.2-27.5-.4,58.2v6.6c0,0-56.5,27.3-56.5,27.3l-25,12-37.4,17.9-1.2-40.2-.5-33.3h0"/>
    <polyline class="cls-2" points="677.7 429.3 703.4 444.5 586.4 494.3"/>
    <line class="cls-2" x1="703.4" y1="444.5" x2="736.2" y2="465.2"/>
  </g>
  <polygon class="cls-2" points="1140.6 553.6 1094 575.6 1094.5 553.9 1141.1 531.9 1140.6 553.6"/>
</svg>