<?xml version="1.0" encoding="UTF-8"?>
<svg id="Layer_1" data-name="Layer 1" xmlns="http://www.w3.org/2000/svg" version="1.1" viewBox="0 0 750 1264">
  <defs>
    <style>
      .cls-1 {
        fill: #f7b2d0;
      }

      .cls-1, .cls-2, .cls-3 {
        stroke: #231f20;
        stroke-width: 2px;
      }

      .cls-2 {
        fill: none;
      }

      .cls-3 {
        fill: #231f20;
      }

      .cls-4 {
        display: none;
      }
    </style>
  </defs>
  <g id="Layer_2" data-name="Layer 2" class="cls-4">
    <rect class="cls-1" width="750" height="1264"/>
  </g>
  <g id="Layer_1-2" data-name="Layer 1">
    <g id="a">
      <line class="cls-2" x1="569.9" y1="880" x2="322.3" y2="880"/>
      <line class="cls-2" x1="750" y1="880" x2="600.7" y2="880"/>
      <line class="cls-2" x1="152.5" y1="880" y2="880"/>
    </g>
    <rect class="cls-2" x="308.3" y="594.8" width="132.5" height="16.2"/>
    <rect class="cls-2" x="143.8" y="251" width="12.8" height="359.9"/>
    <path class="cls-2" d="M212.2,251v346.7c-3.9-1.8-8.2-2.9-12.8-2.9V251h12.8Z"/>
    <polygon class="cls-2" points="504.1 251 504.1 610.9 448.1 610.9 448.1 586.3 301 586.3 301 610.9 254.9 610.9 254.9 251 504.1 251"/>
    <rect class="cls-2" x="546.9" y="251" width="9.5" height="359.9"/>
    <rect class="cls-2" x="599.2" y="251" width="10.5" height="359.9"/>
    <path class="cls-2" d="M739.3,1018.9c0,55.5-162.4,100.5-362.6,100.5S14,1074.5,14,1018.9s54.1-60.6,138.4-79v24.6h169.9v-45c17.7-.7,35.9-1.1,54.3-1.1,71,0,137.3,5.7,193.2,15.5v39.4h30.7v-33.4c84.4,18.4,138.7,47,138.7,79.1h0Z"/>
    <line class="cls-2" x1="556.4" y1="236.3" x2="546.9" y2="236.3"/>
    <line class="cls-2" x1="212.2" y1="236.3" x2="199.4" y2="236.3"/>
    <line class="cls-2" x1="156.6" y1="236.3" x2="143.8" y2="236.3"/>
    <line class="cls-2" x1="504.1" y1="236.3" x2="254.9" y2="236.3"/>
    <line class="cls-2" x1="662.7" y1="236.3" x2="652.5" y2="236.3"/>
    <line class="cls-2" x1="609.7" y1="236.3" x2="599.2" y2="236.3"/>
    <polyline class="cls-2" points="101 236.3 86.4 236.3 83.5 236.3"/>
    <circle class="cls-3" cx="77.2" cy="236.6" r="9.2"/>
    <line class="cls-2" x1="212.2" y1="431.6" x2="199.4" y2="431.6"/>
    <polyline class="cls-2" points="254.9 431.6 374.7 431.6 504.1 431.6"/>
    <polyline class="cls-2" points="156.6 431.6 151.8 431.6 143.8 431.6"/>
    <polyline class="cls-2" points="609.7 431.6 602.8 431.6 599.2 431.6"/>
    <line class="cls-2" x1="556.4" y1="431.6" x2="546.9" y2="431.6"/>
    <polygon class="cls-2" points="143.8 225 143.8 702.9 140.8 702.9 140.8 717 143.8 717 143.8 792 101 792 101 225 143.8 225"/>
    <path class="cls-2" d="M202.6,655.2v34.7h-6.9v-34.7c1.1.1,2.3.2,3.4.2h.2c1.1,0,2.2,0,3.2-.2Z"/>
    <path class="cls-2" d="M199.4,225v369.8h-.2c-11.6,0-21.7,6.5-26.8,16.2-2.2,4.2-3.5,9-3.5,14.2,0,15.6,11.7,28.4,26.9,30.1v34.7h3.6s-21.4,0-21.4,0v12.9h21.4-42.8V225h42.8Z"/>
    <path class="cls-2" d="M254.9,225v477.9h-42.8,8.2v-12.9h-8.2v-37.5c10.2-4.9,17.3-15.3,17.3-27.4s-1.3-9.9-3.5-14.2c-3-5.8-7.9-10.4-13.8-13.2V225h42.8Z"/>
    <rect class="cls-2" x="213.3" y="770.5" width="47.5" height="10.3"/>
    <rect class="cls-2" x="504.1" y="225" width="42.8" height="477.9"/>
    <rect class="cls-2" x="556.4" y="225" width="42.8" height="477.9"/>
    <rect class="cls-2" x="140.8" y="702.9" width="472.6" height="14.1"/>
    <polygon class="cls-2" points="652.5 225 652.5 792 609.7 792 609.7 717 613.4 717 613.4 702.9 609.7 702.9 609.7 225 652.5 225"/>
    <line class="cls-2" x1="374.7" y1="610.9" x2="374.7" y2="594.8"/>
    <polyline class="cls-2" points="374.7 586.3 374.7 431.6 374.7 251"/>
    <circle class="cls-3" cx="671.8" cy="236.3" r="9.2"/>
    <path class="cls-2" d="M152.5,838.6v125.9h169.9v-125.9h-169.9ZM261.8,904h-48.5v-10.3h48.5v10.3Z"/>
    <rect class="cls-2" x="213.3" y="893.7" width="48.5" height="10.3"/>
    <path class="cls-2" d="M152.5,717v121.6h169.9v-121.6h-169.9ZM260.9,780.8h-47.5v-10.3h47.5v10.3Z"/>
    <rect class="cls-2" x="569.9" y="717" width="30.7" height="256.3"/>
    <rect class="cls-2" x="213.3" y="893.7" width="48.5" height="10.3"/>
    <path class="cls-2" d="M301,586.3v103.7h147.1v-103.7h-147.1ZM440.8,682.7h-132.5v-87.9h132.5v87.9Z"/>
    <rect class="cls-2" x="308.3" y="594.8" width="132.5" height="87.9"/>
    <rect class="cls-2" x="295.4" y="690" width="158.3" height="12.9"/>
    <rect class="cls-3" x="308.3" y="594.8" width="132.5" height="87.9"/>
    <rect class="cls-2" x="178" y="690" width="42.4" height="12.9"/>
    <path class="cls-2" d="M229.5,625.1c0,12.1-7.1,22.5-17.3,27.4-2.9,1.4-6.2,2.3-9.6,2.7-1.1.1-2.1.2-3.2.2h-.2c-1.2,0-2.3,0-3.4-.2-15.1-1.7-26.9-14.5-26.9-30.1s1.3-9.9,3.5-14.2c5.1-9.6,15.2-16.2,26.8-16.2h.2c4.6,0,8.9,1.1,12.8,2.9,5.9,2.8,10.8,7.5,13.8,13.2,2.2,4.2,3.5,9,3.5,14.2Z"/>
    <rect class="cls-2" x="36.1" y="800" width="28.2" height="50"/>
    <circle class="cls-2" cx="50.2" cy="815" r="6.9"/>
    <circle class="cls-2" cx="50.2" cy="835.1" r="6.9"/>
  </g>
</svg>