<?xml version="1.0" encoding="UTF-8"?>
<svg id="Layer_1" data-name="Layer 1" xmlns="http://www.w3.org/2000/svg" version="1.1" viewBox="0 0 753.3 1265">
  <defs>
    <style>
      .cls-1 {
        fill: #fff;
      }

      .cls-1, .cls-2, .cls-3, .cls-4, .cls-5, .cls-6 {
        stroke: #231f20;
      }

      .cls-1, .cls-3, .cls-5, .cls-6 {
        stroke-width: 2px;
      }

      .cls-1, .cls-3, .cls-6 {
        stroke-miterlimit: 10;
      }

      .cls-2 {
        stroke-miterlimit: 10;
        stroke-width: 2px;
      }

      .cls-2, .cls-3, .cls-4, .cls-5 {
        fill: none;
      }

      .cls-4 {
        stroke-miterlimit: 10;
        stroke-width: 2px;
      }

      .cls-7, .cls-6 {
        fill: #000;
      }

      .cls-7, .cls-8 {
        stroke-width: 0px;
      }

      .cls-8 {
        fill: #231f20;
      }
    </style>
  </defs>
  <g id="a">
    <line class="cls-5" x1="462.1" y1="881" x2="461.4" y2="881"/>
    <line class="cls-5" x1="396.4" y1="881" x2="260.7" y2="881"/>
    <line class="cls-5" x1="751.7" y1="881" x2="683.7" y2="881"/>
    <line class="cls-5" x1="144.9" y1="881" x2="1.7" y2="881"/>
  </g>
  <g id="b">
    <line class="cls-3" x1="752.7" y1="195" x2="476.5" y2="1.3"/>
    <line class="cls-3" x1=".6" y1="195.1" x2="276.7" y2="1.5"/>
    <line class="cls-3" x1="750.7" y1="115" x2="585.5" y2="1.8"/>
    <line class="cls-3" x1=".9" y1="115.2" x2="166.2" y2="2"/>
    <rect class="cls-3" x="289" y="309.8" width="8.4" height="254.3"/>
    <rect class="cls-3" x="320.9" y="309.8" width="10.1" height="254.3"/>
    <rect class="cls-3" x="354.5" y="309.8" width="61.4" height="254.3"/>
    <rect class="cls-3" x="439.4" y="309.8" width="8.4" height="254.3"/>
    <rect class="cls-3" x="471.3" y="309.8" width="10.1" height="254.3"/>
    <line class="cls-3" x1="331" y1="440.7" x2="320.9" y2="440.7"/>
    <line class="cls-3" x1="447.8" y1="440.7" x2="439.4" y2="440.7"/>
    <line class="cls-3" x1="481.4" y1="440.7" x2="471.3" y2="440.7"/>
    <polyline class="cls-3" points="415.9 440.7 383.7 440.7 354.5 440.7"/>
    <polyline class="cls-3" points="297.4 440.7 294.7 440.7 288.7 440.7"/>
    <line class="cls-3" x1="383.7" y1="310.5" x2="383.7" y2="562.8"/>
    <path class="cls-3" d="M319.4,1013.8h-.1s16.7-11,16.7-11c.2,0-16.6,11-16.6,11Z"/>
    <path class="cls-3" d="M319.3,1013.7h-.2c0,.1-18.1-6-18.1-6,.1,0,.3,0,.4,0l17.9,6h0Z"/>
    <path class="cls-3" d="M319.7,1150.5l38.2-26.4,80.8-55.9v-31.9c97.9,2.8,174.9,33,174.9,69.8h0c0,38.7-84.8,70-189.5,70s-172.9-25.6-187.2-59l82.1,33.6v-102.9c.2,0,.5-.1.7-.2"/>
    <path class="cls-3" d="M522.5,1101.7c0,19.1-41.9,34.5-93.5,34.5s-54-4.7-71.1-12.1l80.8-55.9v-.8c47.1,1.8,83.8,16.5,83.8,34.4Z"/>
    <line class="cls-3" x1="557" y1="916.7" x2="629.5" y2="882"/>
    <line class="cls-3" x1="628.3" y1="917.1" x2="629.5" y2="882"/>
    <line class="cls-3" x1="555.5" y1="950.6" x2="628.3" y2="917.1"/>
    <line class="cls-3" x1="557" y1="916.7" x2="555.5" y2="950.6"/>
    <g>
      <polygon class="cls-3" points="683.7 820.2 540.5 881 488.6 903 462.1 881 430.7 855 430.7 854.9 397.9 827.7 397.3 827.2 592.4 751.3 631.7 781 683.7 820.2"/>
      <polyline class="cls-3" points="401.2 959.7 436.5 936 396.4 922.9 396.4 828.3 461.4 881 488.6 903 488.6 1036 445.1 998 438.7 992.5 437.7 935.6"/>
      <polygon class="cls-3" points="683.7 820.2 683.7 935.1 544 1007.3 488.6 1036 488.6 903 540.5 881 683.7 820.2"/>
    </g>
    <polyline class="cls-6" points="396.4 828.3 592.4 751.3 632 780.9 443.9 865.2 396.4 828.3"/>
    <polygon class="cls-3" points="396.4 828.3 357.7 777 554.7 700 592.4 751.3 396.4 828.3"/>
    <line class="cls-3" x1="111" y1="881" x2="111" y2="119"/>
    <g>
      <rect class="cls-3" x="149.7" y="770" width="177" height="38"/>
      <polygon class="cls-3" points="179.7 808 179.7 860.2 164.6 869.2 164.6 808 179.7 808"/>
      <rect class="cls-3" x="296.5" y="808.2" width="15.1" height="72.8"/>
    </g>
    <path class="cls-3" d="M437.7,935.6"/>
    <polyline class="cls-3" points="401.2 959.7 336 1002.7 319.3 1013.7 301.4 1007.7 65.7 928.4 133.3 888 133.3 888 144.9 881 164.6 869.2 179.7 860.2 184.3 857.4 260.7 881 396.4 922.9"/>
    <polygon class="cls-3" points="319.3 1013.7 319.1 1013.9 65.7 928.4 319.3 1013.7"/>
    <polygon class="cls-3" points="319.4 1013.8 319 1014 319 1150.7 237 1117.1 142.7 1078.5 65.7 1046.9 65.7 928.4 301 1007.8 319.1 1013.9 319.3 1013.7 319.4 1013.8"/>
    <polygon class="cls-3" points="319.3 1013.7 319.1 1013.9 301 1007.8 65.7 928.4 301.4 1007.7 319.3 1013.7"/>
    <line class="cls-3" x1="133.3" y1="888" x2="133" y2="887.9"/>
    <line class="cls-3" x1="377.9" y1="974.9" x2="133.3" y2="888"/>
    <line class="cls-3" x1="186.7" y1="1012" x2="136.2" y2="992.1"/>
    <line class="cls-3" x1="137.8" y1="1028.4" x2="136.2" y2="992.1"/>
    <line class="cls-3" x1="188.7" y1="1047" x2="137.8" y2="1028.4"/>
    <line class="cls-3" x1="188.8" y1="1047.5" x2="187.2" y2="1011.2"/>
    <line class="cls-3" x1="378.6" y1="973.8" x2="387.1" y2="1006.8"/>
    <polygon class="cls-3" points="396.3 1042.3 382 1043 379.7 1016 386.7 1005.9 387 1006.3 394 1015.3 396.3 1042.3"/>
    <line class="cls-3" x1="50.4" y1="880" x2="50.4" y2="160.9"/>
    <line class="cls-3" x1="643.4" y1="790" x2="643.4" y2="117.8"/>
    <line class="cls-3" x1="704" y1="882" x2="704" y2="159.8"/>
    <line class="cls-3" x1="378.7" y1="102" x2="378.7"/>
    <circle class="cls-3" cx="379.2" cy="168.5" r="66.5"/>
    <rect class="cls-2" x="211.7" y="727.8" width="66.8" height="17.2" transform="translate(-490.4 488.6) rotate(-53)"/>
    <rect class="cls-3" x="259.9" y="738.7" width="66.8" height="31.2"/>
    <rect class="cls-3" x="273.4" y="713" width="25.3" height="25.7"/>
    <path class="cls-3" d="M265.2,45s12.6-3.2,12,11.4"/>
    <path class="cls-3" d="M277.2,56.1s10.6-7.5,15.3,6.3"/>
    <path class="cls-3" d="M246.1,61.9s18.2-4.4,17.3,15.9"/>
    <line class="cls-3" x1="313.8" y1="3.2" x2="264.1" y2="133.1"/>
    <line class="cls-3" x1="313" y1="2.2" x2="234.4" y2="117"/>
    <line class="cls-3" x1="311.4" y1="3.5" x2="206.3" y2="94.7"/>
    <line class="cls-3" x1="311.2" y1="2.3" x2="187.7" y2="66.5"/>
    <line class="cls-3" x1="313.8" y1="2.5" x2="302.1" y2="141.1"/>
    <path class="cls-3" d="M292.1,60.1s8.6-9.8,16.3,2.5"/>
    <path class="cls-3" d="M308.7,64.7s1-14.7,22-4.7"/>
    <path class="cls-3" d="M252.7,32.7s12.5-3.8,12.5,10.8"/>
    <path class="cls-3" d="M263.5,75.8s13.5-10.9,20.5,10.4"/>
    <path class="cls-3" d="M283.5,86s11.8-14.4,22.6,3.8"/>
    <path class="cls-3" d="M306.5,90s8.7-23,33.1,0"/>
    <path class="cls-3" d="M230.3,44.4s16-5.1,16,14.7"/>
    <path class="cls-3" d="M224.2,79.3s22.3-6,21.2,21.6"/>
    <path class="cls-3" d="M245.4,100.9s16-16.1,25.2,16.3"/>
    <path class="cls-3" d="M270.9,117.1s16.4-24.2,32.1,6.7"/>
    <path class="cls-3" d="M303.6,125.7s9.6-42.2,41.7-14.9"/>
    <path class="cls-3" d="M206.4,57.2s18.6-7.4,18.8,21.5"/>
    <path class="cls-3" d="M288.3,38s9.9-1.7,9.4,6.1"/>
    <path class="cls-3" d="M298.2,43.7s7.4-6.1,11.7,4.5"/>
    <path class="cls-3" d="M309.5,49.7s-.7-10.5,17.1-3.6"/>
    <path class="cls-3" d="M271.7,22.1s6.9-4.1,8.9,7.9"/>
    <path class="cls-3" d="M295.4,26.6s7.8-1.5,7.4,5.2"/>
    <path class="cls-3" d="M302.8,31.8s5.5-4.2,8.1,2.2"/>
    <path class="cls-3" d="M310.9,34s6.2-8.4,13.4,1.2"/>
    <path class="cls-3" d="M284.6,16.1s3.7-2.7,5.2,6"/>
    <g>
      <line class="cls-3" x1="293.6" y1="91.3" x2="293.8" y2="84.2"/>
      <g>
        <ellipse class="cls-6" cx="294.2" cy="98.3" rx="6.8" ry="6.2"/>
        <ellipse class="cls-6" cx="287.3" cy="92.5" rx="3.4" ry="3.1"/>
        <line class="cls-3" x1="298.5" y1="93.7" x2="302.7" y2="85.5"/>
        <line class="cls-3" x1="300.1" y1="95.8" x2="310.7" y2="94.6"/>
        <line class="cls-3" x1="301" y1="99.8" x2="310.9" y2="101.1"/>
        <line class="cls-3" x1="288" y1="100.4" x2="279" y2="99.4"/>
        <line class="cls-3" x1="290.2" y1="102.5" x2="280.9" y2="107.9"/>
        <line class="cls-3" x1="291.3" y1="104.2" x2="288.7" y2="114.2"/>
        <line class="cls-3" x1="294.3" y1="103.9" x2="295.5" y2="114.7"/>
      </g>
    </g>
    <path class="cls-3" d="M279.7,30.2s10.6-2.3,10.1,8.3"/>
    <path class="cls-3" d="M290.7,22.1s5.7-1.3,5.4,4.5"/>
    <line class="cls-3" x1="314.7" y1="3" x2="345.7" y2="111"/>
    <line class="cls-3" x1="297.4" y1="310" x2="289" y2="310"/>
    <line class="cls-3" x1="415.9" y1="310" x2="354.5" y2="310"/>
    <line class="cls-3" x1="481.4" y1="310" x2="471.3" y2="310"/>
    <polyline class="cls-3" points="504.9 310 515.6 310 530.5 310"/>
    <line class="cls-3" x1="447.8" y1="310" x2="439.4" y2="310"/>
    <line class="cls-3" x1="331" y1="310" x2="320.9" y2="310"/>
    <polyline class="cls-3" points="265.5 310 258.2 310 242.1 310"/>
    <ellipse class="cls-7" cx="523.7" cy="310.7" rx="8.1" ry="8"/>
    <ellipse class="cls-7" cx="250" cy="310.2" rx="8.1" ry="8"/>
    <rect class="cls-3" x="265.5" y="300.7" width="23.5" height="296.9"/>
    <rect class="cls-3" x="297.4" y="300.5" width="23.5" height="296.9"/>
    <rect class="cls-3" x="331" y="299.7" width="23.5" height="296.9"/>
    <rect class="cls-3" x="415.9" y="300.2" width="23.5" height="296.9"/>
    <rect class="cls-3" x="447.8" y="300" width="23.5" height="296.9"/>
    <rect class="cls-3" x="481.4" y="299.3" width="23.5" height="296.9"/>
    <g>
      <path class="cls-1" d="M706.6,983.5c23.6-5.8,20.4-8.6,15.1-24.2s-23.1-13.9-23.1-13.9c0,0-20.9-2.4-27.8,22.9,0,0-5,11,8.7,13.1s11.3,2.2,11.3,2.2"/>
      <path class="cls-1" d="M690.7,984c11.5,3.8,13.6.9,13.6.9,0,0,23.2,35.3,24.1,42.1.8,6.8-8.9,3.5-8.9,3.5l-17-.8-6.4-.2-18.9,1.9c-8.7,2.5-10.2-1-7.7-8.7s21.2-38.7,21.2-38.7"/>
      <path class="cls-1" d="M688.9,987.2s-26.6,12.2-28.2,20.2c-1.6,8,19.8-7.6,19.8-7.6l8.4-12.6h0Z"/>
      <path class="cls-1" d="M706.2,987.4s26.6,12.2,28.2,20.2-19.8-7.6-19.8-7.6l-8.4-12.6h0Z"/>
      <path class="cls-1" d="M679.8,968.2s1.2,0,2.5,0c1.5,0,3.1,0,3.6-.2,4.5-.8,10.3-3.4,12.5-11.1,0,0,4.1,11.3,17.2,11,0,0-3.1,17.2-16,17.6,0,0-13.8,2.5-18.6-17.2"/>
      <ellipse class="cls-1" cx="685.1" cy="1032" rx="8.7" ry="7.7"/>
      <ellipse class="cls-1" cx="712.4" cy="1032.6" rx="8.7" ry="8.1"/>
      <ellipse class="cls-8" cx="690.7" cy="971.8" rx="2.2" ry="2.4"/>
      <ellipse class="cls-8" cx="706.9" cy="972.2" rx="2.2" ry="2.4"/>
    </g>
    <g>
      <path class="cls-3" d="M153.7,697s-6.8-1.6-7.4,2.1.2,41.9.2,41.9"/>
      <path class="cls-3" d="M206.6,696.4s6.8-1.7,7.5,2,.2,41.9.2,41.9"/>
      <polyline class="cls-3" points="160.4 744.7 160.5 766 173.1 765.9 173 745.1 160.4 745.1 173 745.1 160.4 745.1 173 745.1"/>
      <polyline class="cls-3" points="188.6 744.5 188.6 765.7 201.3 765.7 201.2 744.9 188.6 745 201.2 744.9 188.6 745 201.2 744.9"/>
      <polygon class="cls-4" points="160.7 662.2 199.1 662.1 199.3 687.9 160.9 688 160.7 662.2"/>
      <rect class="cls-4" x="154.2" y="688.1" width="51.7" height="56.9" transform="translate(-2.8 .7) rotate(-.2)"/>
      <rect class="cls-4" x="158.2" y="766" width="17.8" height="3.6" transform="translate(-3 .7) rotate(-.2)"/>
      <rect class="cls-4" x="186.3" y="765.8" width="17.8" height="3.6" transform="translate(-3 .8) rotate(-.2)"/>
      <line class="cls-3" x1="166.5" y1="680.3" x2="193.2" y2="680.2"/>
      <ellipse class="cls-8" cx="168" cy="670.9" rx="2.9" ry="2.9" transform="translate(-2.6 .7) rotate(-.2)"/>
      <ellipse class="cls-8" cx="191.1" cy="670.9" rx="2.9" ry="2.9" transform="translate(-2.6 .8) rotate(-.2)"/>
      <ellipse class="cls-4" cx="179.6" cy="707.6" rx="10" ry="5.6" transform="translate(-2.8 .7) rotate(-.2)"/>
    </g>
  </g>
  <line class="cls-3" x1="438.7" y1="992.5" x2="438.7" y2="1036.2"/>
</svg>